<?xml version="1.0" encoding="UTF-8"?> <svg xmlns="http://www.w3.org/2000/svg" xmlns:xlink="http://www.w3.org/1999/xlink" version="1.1" id="Calque_1" x="0px" y="0px" viewBox="0 0 112.6 61.2" style="enable-background:new 0 0 112.6 61.2;" xml:space="preserve"> <style type="text/css"> .st0{fill:#B6B8DD;} .st1{fill:#E96D11;} .st2{fill:#094785;} </style> <g> <g> <path class="st0" d="M13,30c6.6-2.3,14.2-4,21.3-3.2c4.2,0.4,8.1,2.3,9.5,6.5c2.2,6.9-5.4,19-7.1,22c-1.2,2-2,3.5-2.6,4.5 c-0.9,1.5-0.3,1.9,0.6,0.4c2.7-4,25.9-36,6.8-41.1c-7.5-2-16.4,0.3-23.6,2.7c-1.4,0.5-1.9,1.8-2.9,3.8C14.2,27.5,13.6,28.8,13,30"></path> <path class="st1" d="M35,52.9c-1.7,0.2-3.6,0.3-5.7,0.3C7.8,53.1,0,37.4,0,27C0,10.4,13,0,27.7,0c5,0,9.1,1,12.4,2.8 C40.5,3,41,3.2,40.9,3.5c-0.1,0.3-0.6,0.1-1,0c-2.3-0.8-4.8-1.2-7.4-1.2c-12.7,0-23,10.7-23,24.1c0,12.5,10.5,26.6,25.4,26.2 c0,0,0.1,0,0.1,0c0.2,0,0.5,0,0.5,0.1C35.5,52.8,35.3,52.8,35,52.9"></path> </g> <g> <path class="st2" d="M41.7,38.8v8.3c-2.5,1.2-5.8,2-9.3,2c-8,0-14.7-5.3-14.7-13.2c0-7,6.1-13.8,14.6-13.9c2.8,0,5.7,0.7,8.7,2.3 l0.3,3.6c-1.1-1.1-4.6-4.1-9-4.1c-8,0-10.4,7.1-10.2,11.5c0.4,7.2,5.8,12,10.5,11.9c2,0,3.4-0.2,4.9-1v-7.6c0-1.2-0.4-2.7-0.7-3.1 h5.3C42.1,36.1,41.7,37.6,41.7,38.8"></path> <path class="st2" d="M47.4,37.2c-0.5,6.5,3.1,10.2,6.8,10.4c1.7,0,4.2-0.5,5.6-1.9l0.7,0.9c-5.6,4.6-11.6,2-13.7,0.4 c-2.7-2.2-3.7-5.5-3.7-7.6c0-4,2.6-9.6,9.5-10.3c3.4-0.3,8.7,2,9.2,8H47.4z M52.8,30.6c-2.9,0.2-4.4,2.4-5,5.2h10 C57.5,30.7,53.9,30.5,52.8,30.6"></path> <path class="st2" d="M67,38.4c0-3.1,3.5-9.2,8.3-6.5c0.7-0.9,1.6-1.8,2.7-2.4c-0.7-0.2-2-0.3-2.6-0.3c-3.9-0.1-6.7,1.9-8.5,4.6 c0-2.4,0-3.4-0.3-4.1h-4.6c1.3,2.1,1,6.2,1,6.5v8.4c0,1.9,0,2.4-0.7,4.1h5.2C67,47,67,45.8,67,44.6V38.4z"></path> </g> <g> <path class="st2" d="M78.4,37.2c-0.5,6.5,3.1,10.2,6.8,10.4c1.7,0,4.2-0.5,5.6-1.9l0.7,0.9c-5.6,4.6-11.6,2-13.7,0.4 c-2.7-2.2-3.7-5.5-3.7-7.6c0-4,2.6-9.6,9.5-10.3c3.4-0.3,8.7,2,9.2,8H78.4z M83.8,30.6c-2.9,0.2-4.4,2.4-5,5.2h10 C88.5,30.7,84.9,30.5,83.8,30.6"></path> <path class="st2" d="M104.6,29.2c-3,0-5.6,2.6-6.5,4.1l-0.1,0.1c0-2.2,0-3.1-0.3-3.8h-4.6c1.3,2.1,1,6.2,1,6.5v2c0,0,0,0,0,0v16.4 c0,1.7,0,2.5-0.7,4.3h5.3C98,57.1,98,56,98,54.6v-6.4c1.5,0.4,3,0.7,4.4,0.6c7.2-0.5,9.9-5.3,10.2-10.3 C112.8,35.3,111.7,29.2,104.6,29.2 M102.4,47.6c-1.7,0.1-2.8-0.3-4.4-1v-2c0,0,0,0,0,0v-6.8c0-3.5,3-6.6,5.9-6.6 c3,0,4.4,4,4.5,7.1C108.8,42.6,107.2,47.4,102.4,47.6"></path> </g> </g> </svg> 